# 3ds Max Wavefront OBJ Exporter v0.97b - (c)2007 guruware
# 创建的文件:10.07.2019 18:04:11

mtllib BLG_GuBin.mtl

#
# object gubing
#

v  0.6442 -10.6707 -0.0000
v  0.6072 -17.2524 0.0000
v  0.4651 -17.2524 -0.3903
v  0.4935 -10.6707 -0.4141
v  0.1054 -17.2524 -0.5980
v  0.1119 -10.6707 -0.6344
v  -0.3036 -17.2524 -0.5258
v  -0.3221 -10.6707 -0.5579
v  -0.5706 -17.2524 -0.2077
v  -0.6054 -10.6707 -0.2203
v  -0.5706 -17.2524 0.2077
v  -0.6054 -10.6707 0.2203
v  -0.3036 -17.2524 0.5258
v  -0.3221 -10.6707 0.5579
v  0.1054 -17.2524 0.5980
v  0.1119 -10.6707 0.6344
v  0.4651 -17.2524 0.3903
v  0.4935 -10.6707 0.4141
v  0.3875 -17.3516 0.3251
v  0.0878 -17.3516 0.4981
v  -0.2529 -17.3516 0.4380
v  -0.4753 -17.3516 0.1730
v  -0.4753 -17.3516 -0.1730
v  -0.2529 -17.3516 -0.4380
v  0.0878 -17.3516 -0.4981
v  0.3875 -17.3516 -0.3251
v  0.5058 -17.3516 -0.0000
v  0.3800 -10.5715 -0.3189
v  0.4961 -10.5715 -0.0000
v  0.5457 -10.5715 -0.0000
v  0.4180 -10.5715 -0.3508
v  0.3800 -10.5715 0.3189
v  0.4180 -10.5715 0.3507
v  0.0861 -10.5715 0.4885
v  0.0948 -10.5715 0.5374
v  -0.2480 -10.5715 0.4296
v  -0.2728 -10.5715 0.4726
v  -0.4661 -10.5715 0.1697
v  -0.5128 -10.5715 0.1866
v  -0.4661 -10.5715 -0.1697
v  -0.5128 -10.5715 -0.1866
v  -0.2480 -10.5715 -0.4296
v  -0.2728 -10.5715 -0.4726
v  0.0861 -10.5715 -0.4885
v  0.0948 -10.5715 -0.5374
v  0.6383 -10.6273 -0.0000
v  0.4890 -10.6273 -0.4103
v  0.4890 -10.6273 0.4103
v  0.1108 -10.6273 0.6286
v  -0.3191 -10.6273 0.5528
v  -0.5998 -10.6273 0.2183
v  -0.5998 -10.6273 -0.2183
v  -0.3191 -10.6273 -0.5528
v  0.1108 -10.6273 -0.6286
v  0.6199 -10.5963 -0.0000
v  0.4749 -10.5963 -0.3985
v  0.5890 -10.5777 -0.0000
v  0.4512 -10.5777 -0.3786
v  0.4749 -10.5963 0.3985
v  0.4512 -10.5777 0.3786
v  0.1076 -10.5963 0.6105
v  0.1023 -10.5777 0.5801
v  -0.3100 -10.5963 0.5369
v  -0.2945 -10.5777 0.5101
v  -0.5825 -10.5963 0.2120
v  -0.5535 -10.5777 0.2015
v  -0.5825 -10.5963 -0.2120
v  -0.5535 -10.5777 -0.2015
v  -0.3099 -10.5963 -0.5369
v  -0.2945 -10.5777 -0.5101
v  0.1076 -10.5963 -0.6105
v  0.1023 -10.5777 -0.5801
v  0.6006 -17.2958 0.0000
v  0.4601 -17.2958 -0.3861
v  0.1043 -17.2958 -0.5915
v  -0.3003 -17.2958 -0.5201
v  -0.5644 -17.2958 -0.2054
v  -0.5644 -17.2958 0.2054
v  -0.3003 -17.2958 0.5201
v  0.1043 -17.2958 0.5915
v  0.4601 -17.2958 0.3861
v  0.5815 -17.3268 0.0000
v  0.4455 -17.3268 -0.3738
v  0.5499 -17.3454 0.0000
v  0.4213 -17.3454 -0.3535
v  0.1010 -17.3268 -0.5727
v  0.0955 -17.3454 -0.5416
v  -0.2908 -17.3268 -0.5036
v  -0.2750 -17.3454 -0.4762
v  -0.5464 -17.3268 -0.1989
v  -0.5167 -17.3454 -0.1881
v  -0.5464 -17.3268 0.1989
v  -0.5167 -17.3454 0.1881
v  -0.2908 -17.3268 0.5036
v  -0.2749 -17.3454 0.4762
v  0.1010 -17.3268 0.5727
v  0.0955 -17.3454 0.5416
v  0.4455 -17.3268 0.3738
v  0.4213 -17.3454 0.3535
v  0.4961 -10.5584 -0.0000
v  0.3800 -10.5584 -0.3189
v  0.0861 -10.5584 -0.4885
v  -0.2480 -10.5584 -0.4296
v  -0.4661 -10.5584 -0.1697
v  -0.4661 -10.5584 0.1697
v  -0.2480 -10.5584 0.4296
v  0.0861 -10.5584 0.4885
v  0.3800 -10.5584 0.3189
v  0.4815 1.7481 -0.0000
v  0.4961 1.7135 -0.0000
v  0.3800 1.7135 -0.3189
v  0.3689 1.7481 -0.3095
v  0.3420 1.7624 -0.2870
v  0.4465 1.7624 -0.0000
v  0.0861 1.7135 -0.4885
v  -0.2480 1.7135 -0.4296
v  -0.4661 1.7135 -0.1697
v  -0.4661 1.7135 0.1697
v  -0.2480 1.7135 0.4296
v  0.0861 1.7135 0.4885
v  0.3800 1.7135 0.3189
v  0.0775 1.7624 -0.4397
v  -0.2232 1.7624 -0.3866
v  -0.4195 1.7624 -0.1527
v  -0.4195 1.7624 0.1527
v  -0.2232 1.7624 0.3866
v  0.0775 1.7624 0.4397
v  0.3420 1.7624 0.2870
v  0.0836 1.7481 -0.4742
v  -0.2408 1.7481 -0.4170
v  -0.4525 1.7481 -0.1647
v  -0.4525 1.7481 0.1647
v  -0.2408 1.7481 0.4170
v  0.0836 1.7481 0.4742
v  0.3689 1.7481 0.3095
# 135 vertices

vn 0.9397 -0.0053 -0.3420
vn 0.5000 -0.0053 -0.8660
vn -0.1737 -0.0053 -0.9848
vn -0.7660 -0.0053 -0.6428
vn -1.0000 -0.0053 0.0000
vn -0.7660 -0.0053 0.6428
vn -0.1737 -0.0053 0.9848
vn 0.5000 -0.0053 0.8660
vn 0.9397 -0.0053 0.3420
vn -0.0000 -1.0000 -0.0000
vn 0.0000 1.0000 0.0000
vn 0.9321 0.1270 -0.3393
vn 0.9321 0.1270 0.3393
vn 0.4960 0.1271 0.8590
vn -0.1722 0.1270 0.9768
vn -0.7598 0.1270 0.6376
vn -0.9919 0.1268 -0.0000
vn -0.7598 0.1270 -0.6376
vn -0.1722 0.1270 -0.9768
vn 0.4959 0.1270 -0.8590
vn 0.8208 0.4869 -0.2988
vn 0.5071 0.8419 -0.1846
vn 0.1414 0.9886 -0.0515
vn 0.8208 0.4869 0.2987
vn 0.5071 0.8419 0.1846
vn 0.1414 0.9886 0.0515
vn 0.4367 0.4870 0.7564
vn 0.2698 0.8419 0.4674
vn 0.0752 0.9886 0.1303
vn -0.1517 0.4870 0.8601
vn -0.0937 0.8419 0.5314
vn -0.0261 0.9886 0.1482
vn -0.6691 0.4870 0.5614
vn -0.4134 0.8419 0.3469
vn -0.1152 0.9886 0.0967
vn -0.8734 0.4870 -0.0000
vn -0.5397 0.8419 0.0000
vn -0.1504 0.9886 0.0000
vn -0.6691 0.4870 -0.5614
vn -0.4134 0.8419 -0.3469
vn -0.1152 0.9886 -0.0967
vn -0.1517 0.4870 -0.8601
vn -0.0937 0.8419 -0.5314
vn -0.0261 0.9886 -0.1482
vn 0.4367 0.4870 -0.7564
vn 0.2698 0.8419 -0.4674
vn 0.0752 0.9886 -0.1303
vn 0.9303 -0.1412 -0.3386
vn 0.4950 -0.1412 -0.8573
vn -0.1719 -0.1411 -0.9750
vn -0.7584 -0.1412 -0.6363
vn -0.9900 -0.1413 0.0000
vn -0.7584 -0.1411 0.6364
vn -0.1719 -0.1411 0.9750
vn 0.4950 -0.1411 0.8574
vn 0.9303 -0.1410 0.3386
vn 0.8134 -0.5007 -0.2960
vn 0.4987 -0.8475 -0.1815
vn 0.1390 -0.9890 -0.0506
vn 0.4328 -0.5008 -0.7496
vn 0.2654 -0.8475 -0.4597
vn 0.0739 -0.9890 -0.1281
vn -0.1503 -0.5009 -0.8524
vn -0.0922 -0.8475 -0.5228
vn -0.0257 -0.9890 -0.1457
vn -0.6631 -0.5008 -0.5563
vn -0.4067 -0.8475 -0.3412
vn -0.1133 -0.9890 -0.0951
vn -0.8656 -0.5008 -0.0000
vn -0.5308 -0.8475 -0.0000
vn -0.1479 -0.9890 -0.0000
vn -0.6631 -0.5008 0.5564
vn -0.4066 -0.8475 0.3412
vn -0.1133 -0.9890 0.0951
vn -0.1503 -0.5009 0.8524
vn -0.0922 -0.8475 0.5227
vn -0.0257 -0.9890 0.1457
vn 0.4327 -0.5009 0.7496
vn 0.2654 -0.8475 0.4597
vn 0.0740 -0.9890 0.1281
vn 0.8133 -0.5009 0.2960
vn 0.4987 -0.8475 0.1815
vn 0.1390 -0.9890 0.0506
vn 0.9397 0.0000 -0.3420
vn 0.5000 0.0000 -0.8660
vn -0.1737 0.0000 -0.9848
vn -0.7660 0.0000 -0.6428
vn -1.0000 0.0000 -0.0000
vn -0.7660 -0.0000 0.6428
vn -0.1737 -0.0000 0.9848
vn 0.5000 -0.0000 0.8660
vn 0.9397 -0.0000 0.3420
vn 0.8740 0.3674 -0.3181
vn 0.3740 0.9174 -0.1361
vn 0.1990 0.9174 -0.3447
vn 0.4650 0.3675 -0.8054
vn -0.0691 0.9173 -0.3920
vn -0.1615 0.3675 -0.9159
vn -0.3050 0.9173 -0.2559
vn -0.7124 0.3675 -0.5978
vn -0.3981 0.9173 0.0000
vn -0.9300 0.3675 0.0000
vn -0.3050 0.9173 0.2559
vn -0.7124 0.3675 0.5978
vn -0.0691 0.9173 0.3920
vn -0.1615 0.3675 0.9159
vn 0.1990 0.9174 0.3447
vn 0.4650 0.3675 0.8054
vn 0.3740 0.9174 0.1361
vn 0.8740 0.3674 0.3181
# 110 vertex normals

vt 0.7500 0.4915 0.0000
vt 0.7500 0.0085 0.0000
vt 0.8611 0.0085 0.0000
vt 0.8611 0.4915 0.0000
vt 0.9722 0.0085 0.0000
vt 0.9722 0.4915 0.0000
vt 0.0833 0.0085 0.0000
vt 0.0833 0.4915 0.0000
vt 0.1944 0.0085 0.0000
vt 0.1944 0.4915 0.0000
vt 0.3056 0.0085 0.0000
vt 0.3056 0.4915 0.0000
vt 0.4167 0.0085 0.0000
vt 0.4167 0.4915 0.0000
vt 0.5278 0.0085 0.0000
vt 0.5278 0.4915 0.0000
vt 0.6389 0.0085 0.0000
vt 0.6389 0.4915 0.0000
vt 0.7680 0.8194 0.0000
vt 0.9106 0.5724 0.0000
vt 0.8611 0.2915 0.0000
vt 0.6426 0.1082 0.0000
vt 0.3574 0.1082 0.0000
vt 0.1389 0.2915 0.0000
vt 0.0894 0.5724 0.0000
vt 0.2320 0.8194 0.0000
vt 0.5000 0.9170 0.0000
vt 0.8611 0.5000 0.0000
vt 0.7500 0.5000 0.0000
vt 0.6389 0.5000 0.0000
vt 0.5278 0.5000 0.0000
vt 0.4167 0.5000 0.0000
vt 0.3056 0.5000 0.0000
vt 0.1944 0.5000 0.0000
vt 0.0833 0.5000 0.0000
vt 0.9722 0.5000 0.0000
vt 0.7500 0.4936 0.0000
vt 0.8611 0.4936 0.0000
vt 0.6389 0.4936 0.0000
vt 0.5278 0.4936 0.0000
vt 0.4167 0.4936 0.0000
vt 0.3056 0.4936 0.0000
vt 0.1944 0.4936 0.0000
vt 0.0833 0.4936 0.0000
vt 0.9722 0.4936 0.0000
vt 0.7500 0.4957 0.0000
vt 0.8611 0.4957 0.0000
vt 0.7500 0.4979 0.0000
vt 0.8611 0.4979 0.0000
vt 0.6389 0.4957 0.0000
vt 0.6389 0.4979 0.0000
vt 0.5278 0.4957 0.0000
vt 0.5278 0.4979 0.0000
vt 0.4167 0.4957 0.0000
vt 0.4167 0.4979 0.0000
vt 0.3056 0.4957 0.0000
vt 0.3056 0.4979 0.0000
vt 0.1944 0.4957 0.0000
vt 0.1944 0.4979 0.0000
vt 0.0833 0.4957 0.0000
vt 0.0833 0.4979 0.0000
vt 0.9722 0.4957 0.0000
vt 0.9722 0.4979 0.0000
vt 0.2210 0.8095 0.0000
vt 0.5148 0.9165 0.0000
vt 0.5111 0.9166 0.0000
vt 0.2237 0.8120 0.0000
vt 0.0873 0.5577 0.0000
vt 0.2436 0.8286 0.0000
vt 0.2407 0.8263 0.0000
vt 0.0878 0.5614 0.0000
vt 0.1467 0.2789 0.0000
vt 0.0924 0.5869 0.0000
vt 0.0917 0.5833 0.0000
vt 0.1448 0.2821 0.0000
vt 0.3715 0.1036 0.0000
vt 0.1319 0.3046 0.0000
vt 0.1337 0.3013 0.0000
vt 0.3680 0.1047 0.0000
vt 0.6564 0.1137 0.0000
vt 0.3436 0.1137 0.0000
vt 0.3470 0.1123 0.0000
vt 0.6530 0.1123 0.0000
vt 0.8681 0.3046 0.0000
vt 0.6285 0.1036 0.0000
vt 0.6321 0.1047 0.0000
vt 0.8663 0.3013 0.0000
vt 0.9076 0.5869 0.0000
vt 0.8533 0.2789 0.0000
vt 0.8552 0.2821 0.0000
vt 0.9083 0.5833 0.0000
vt 0.7564 0.8286 0.0000
vt 0.9127 0.5577 0.0000
vt 0.9122 0.5614 0.0000
vt 0.7593 0.8263 0.0000
vt 0.4852 0.9165 0.0000
vt 0.7791 0.8095 0.0000
vt 0.7763 0.8120 0.0000
vt 0.4889 0.9166 0.0000
vt 0.5074 0.9167 0.0000
vt 0.2265 0.8145 0.0000
vt 0.5037 0.9168 0.0000
vt 0.2292 0.8169 0.0000
vt 0.2378 0.8240 0.0000
vt 0.0883 0.5651 0.0000
vt 0.2349 0.8217 0.0000
vt 0.0889 0.5687 0.0000
vt 0.0909 0.5797 0.0000
vt 0.1428 0.2852 0.0000
vt 0.0901 0.5760 0.0000
vt 0.1409 0.2884 0.0000
vt 0.1354 0.2981 0.0000
vt 0.3644 0.1059 0.0000
vt 0.1372 0.2948 0.0000
vt 0.3609 0.1070 0.0000
vt 0.3505 0.1110 0.0000
vt 0.6495 0.1109 0.0000
vt 0.3539 0.1096 0.0000
vt 0.6461 0.1096 0.0000
vt 0.6356 0.1059 0.0000
vt 0.8646 0.2980 0.0000
vt 0.6391 0.1070 0.0000
vt 0.8628 0.2948 0.0000
vt 0.8572 0.2852 0.0000
vt 0.9091 0.5797 0.0000
vt 0.8591 0.2884 0.0000
vt 0.9099 0.5760 0.0000
vt 0.9117 0.5651 0.0000
vt 0.7622 0.8240 0.0000
vt 0.9111 0.5687 0.0000
vt 0.7651 0.8217 0.0000
vt 0.7735 0.8145 0.0000
vt 0.4926 0.9167 0.0000
vt 0.7708 0.8169 0.0000
vt 0.4963 0.9168 0.0000
vt 0.7500 0.5005 0.0000
vt 0.8611 0.5005 0.0000
vt 0.9722 0.5005 0.0000
vt 0.0833 0.5005 0.0000
vt 0.1944 0.5005 0.0000
vt 0.3056 0.5005 0.0000
vt 0.4167 0.5005 0.0000
vt 0.5278 0.5005 0.0000
vt 0.6389 0.5005 0.0000
vt 0.7500 1.0000 0.0000
vt 0.7500 0.9980 0.0000
vt 0.8611 0.9980 0.0000
vt 0.8611 1.0000 0.0000
vt 0.2108 0.8447 0.0000
vt 0.5000 0.9500 0.0000
vt 0.5000 1.0000 0.0000
vt 0.1786 0.8830 0.0000
vt 0.9722 0.9980 0.0000
vt 0.0833 0.9980 0.0000
vt 0.1944 0.9980 0.0000
vt 0.3056 0.9980 0.0000
vt 0.4167 0.9980 0.0000
vt 0.5278 0.9980 0.0000
vt 0.6389 0.9980 0.0000
vt 0.0568 0.5782 0.0000
vt 0.1103 0.2750 0.0000
vt 0.3461 0.0771 0.0000
vt 0.6539 0.0771 0.0000
vt 0.8897 0.2750 0.0000
vt 0.9432 0.5782 0.0000
vt 0.7892 0.8447 0.0000
vt 0.0076 0.5868 0.0000
vt 0.9722 1.0000 0.0000
vt 0.0670 0.2500 0.0000
vt 0.0833 1.0000 0.0000
vt 0.3290 0.0302 0.0000
vt 0.1944 1.0000 0.0000
vt 0.6710 0.0302 0.0000
vt 0.3056 1.0000 0.0000
vt 0.9330 0.2500 0.0000
vt 0.4167 1.0000 0.0000
vt 0.9924 0.5868 0.0000
vt 0.5278 1.0000 0.0000
vt 0.8214 0.8830 0.0000
vt 0.6389 1.0000 0.0000
# 180 texture coords

g gubing
usemtl blinn1
s off
f 1/1/1 2/2/1 3/3/1 4/4/1 
f 4/4/2 3/3/2 5/5/2 6/6/2 
f 6/6/3 5/5/3 7/7/3 8/8/3 
f 8/8/4 7/7/4 9/9/4 10/10/4 
f 10/10/5 9/9/5 11/11/5 12/12/5 
f 12/12/6 11/11/6 13/13/6 14/14/6 
f 14/14/7 13/13/7 15/15/7 16/16/7 
f 16/16/8 15/15/8 17/17/8 18/18/8 
f 18/18/9 17/17/9 2/2/9 1/1/9 
f 19/19/10 20/20/10 21/21/10 22/22/10 
f 19/19/10 22/22/10 23/23/10 24/24/10 
f 19/19/10 24/24/10 25/25/10 26/26/10 
f 19/19/10 26/26/10 27/27/10 
f 28/28/11 29/29/11 30/29/11 31/28/11 
f 30/29/11 29/29/11 32/30/11 33/30/11 
f 33/30/11 32/30/11 34/31/11 35/31/11 
f 35/31/11 34/31/11 36/32/11 37/32/11 
f 37/32/11 36/32/11 38/33/11 39/33/11 
f 39/33/11 38/33/11 40/34/11 41/34/11 
f 41/34/11 40/34/11 42/35/11 43/35/11 
f 43/35/11 42/35/11 44/36/11 45/36/11 
f 45/36/11 44/36/11 28/28/11 31/28/11 
f 46/37/12 1/1/12 4/4/12 47/38/12 
f 18/18/13 1/1/13 46/37/13 48/39/13 
f 16/16/14 18/18/14 48/39/14 49/40/14 
f 14/14/15 16/16/15 49/40/15 50/41/15 
f 12/12/16 14/14/16 50/41/16 51/42/16 
f 10/10/17 12/12/17 51/42/17 52/43/17 
f 8/8/18 10/10/18 52/43/18 53/44/18 
f 6/6/19 8/8/19 53/44/19 54/45/19 
f 4/4/20 6/6/20 54/45/20 47/38/20 
f 55/46/21 46/37/21 47/38/21 56/47/21 
f 57/48/22 55/46/22 56/47/22 58/49/22 
f 31/28/23 30/29/23 57/48/23 58/49/23 
f 48/39/24 46/37/24 55/46/24 59/50/24 
f 55/46/25 57/48/25 60/51/25 59/50/25 
f 57/48/26 30/29/26 33/30/26 60/51/26 
f 49/40/27 48/39/27 59/50/27 61/52/27 
f 59/50/28 60/51/28 62/53/28 61/52/28 
f 60/51/29 33/30/29 35/31/29 62/53/29 
f 50/41/30 49/40/30 61/52/30 63/54/30 
f 61/52/31 62/53/31 64/55/31 63/54/31 
f 62/53/32 35/31/32 37/32/32 64/55/32 
f 51/42/33 50/41/33 63/54/33 65/56/33 
f 63/54/34 64/55/34 66/57/34 65/56/34 
f 64/55/35 37/32/35 39/33/35 66/57/35 
f 52/43/36 51/42/36 65/56/36 67/58/36 
f 65/56/37 66/57/37 68/59/37 67/58/37 
f 66/57/38 39/33/38 41/34/38 68/59/38 
f 53/44/39 52/43/39 67/58/39 69/60/39 
f 67/58/40 68/59/40 70/61/40 69/60/40 
f 68/59/41 41/34/41 43/35/41 70/61/41 
f 54/45/42 53/44/42 69/60/42 71/62/42 
f 69/60/43 70/61/43 72/63/43 71/62/43 
f 70/61/44 43/35/44 45/36/44 72/63/44 
f 47/38/45 54/45/45 71/62/45 56/47/45 
f 71/62/46 72/63/46 58/49/46 56/47/46 
f 72/63/47 45/36/47 31/28/47 58/49/47 
f 3/64/48 2/65/48 73/66/48 74/67/48 
f 5/68/49 3/69/49 74/70/49 75/71/49 
f 7/72/50 5/73/50 75/74/50 76/75/50 
f 9/76/51 7/77/51 76/78/51 77/79/51 
f 11/80/52 9/81/52 77/82/52 78/83/52 
f 13/84/53 11/85/53 78/86/53 79/87/53 
f 15/88/54 13/89/54 79/90/54 80/91/54 
f 17/92/55 15/93/55 80/94/55 81/95/55 
f 2/96/56 17/97/56 81/98/56 73/99/56 
f 74/67/57 73/66/57 82/100/57 83/101/57 
f 82/100/58 84/102/58 85/103/58 83/101/58 
f 84/102/59 27/27/59 26/26/59 85/103/59 
f 75/71/60 74/70/60 83/104/60 86/105/60 
f 83/104/61 85/106/61 87/107/61 86/105/61 
f 85/106/62 26/26/62 25/25/62 87/107/62 
f 76/75/63 75/74/63 86/108/63 88/109/63 
f 86/108/64 87/110/64 89/111/64 88/109/64 
f 87/110/65 25/25/65 24/24/65 89/111/65 
f 77/79/66 76/78/66 88/112/66 90/113/66 
f 88/112/67 89/114/67 91/115/67 90/113/67 
f 89/114/68 24/24/68 23/23/68 91/115/68 
f 78/83/69 77/82/69 90/116/69 92/117/69 
f 90/116/70 91/118/70 93/119/70 92/117/70 
f 91/118/71 23/23/71 22/22/71 93/119/71 
f 79/87/72 78/86/72 92/120/72 94/121/72 
f 92/120/73 93/122/73 95/123/73 94/121/73 
f 93/122/74 22/22/74 21/21/74 95/123/74 
f 80/91/75 79/90/75 94/124/75 96/125/75 
f 94/124/76 95/126/76 97/127/76 96/125/76 
f 95/126/77 21/21/77 20/20/77 97/127/77 
f 81/95/78 80/94/78 96/128/78 98/129/78 
f 96/128/79 97/130/79 99/131/79 98/129/79 
f 97/130/80 20/20/80 19/19/80 99/131/80 
f 73/99/81 81/98/81 98/132/81 82/133/81 
f 98/132/82 99/134/82 84/135/82 82/133/82 
f 99/134/83 19/19/83 27/27/83 84/135/83 
f 100/136/84 29/29/84 28/28/84 101/137/84 
f 101/137/85 28/28/85 44/36/85 102/138/85 
f 102/138/86 44/36/86 42/35/86 103/139/86 
f 103/139/87 42/35/87 40/34/87 104/140/87 
f 104/140/88 40/34/88 38/33/88 105/141/88 
f 105/141/89 38/33/89 36/32/89 106/142/89 
f 106/142/90 36/32/90 34/31/90 107/143/90 
f 107/143/91 34/31/91 32/30/91 108/144/91 
f 108/144/92 32/30/92 29/29/92 100/136/92 
f 109/145/93 110/146/93 111/147/93 112/148/93 
f 113/149/94 114/150/94 109/151/94 112/152/94 
f 111/147/84 110/146/84 100/136/84 101/137/84 
f 115/153/85 111/147/85 101/137/85 102/138/85 
f 116/154/86 115/153/86 102/138/86 103/139/86 
f 117/155/87 116/154/87 103/139/87 104/140/87 
f 118/156/88 117/155/88 104/140/88 105/141/88 
f 119/157/89 118/156/89 105/141/89 106/142/89 
f 120/158/90 119/157/90 106/142/90 107/143/90 
f 121/159/91 120/158/91 107/143/91 108/144/91 
f 110/146/92 121/159/92 108/144/92 100/136/92 
f 114/150/11 113/149/11 122/160/11 123/161/11 
f 114/150/11 123/161/11 124/162/11 125/163/11 
f 114/150/11 125/163/11 126/164/11 127/165/11 
f 114/150/11 127/165/11 128/166/11 
f 113/149/95 112/152/95 129/167/95 122/160/95 
f 112/148/96 111/147/96 115/153/96 129/168/96 
f 122/160/97 129/167/97 130/169/97 123/161/97 
f 129/168/98 115/153/98 116/154/98 130/170/98 
f 123/161/99 130/169/99 131/171/99 124/162/99 
f 130/170/100 116/154/100 117/155/100 131/172/100 
f 124/162/101 131/171/101 132/173/101 125/163/101 
f 131/172/102 117/155/102 118/156/102 132/174/102 
f 125/163/103 132/173/103 133/175/103 126/164/103 
f 132/174/104 118/156/104 119/157/104 133/176/104 
f 126/164/105 133/175/105 134/177/105 127/165/105 
f 133/176/106 119/157/106 120/158/106 134/178/106 
f 127/165/107 134/177/107 135/179/107 128/166/107 
f 134/178/108 120/158/108 121/159/108 135/180/108 
f 114/150/109 128/166/109 135/179/109 109/151/109 
f 135/180/110 121/159/110 110/146/110 109/145/110 
# 132 polygons - 2 triangles

